# xmcd
# Track frame offsets:
# 150
# 40685
# 46349
# 73230
# 95968
# 99835
# 168143
# 171965
# 209538
# 243992
# 247279
#
# Disc length: 3834 seconds
# Revision: 0
# Processed by: cddbd v1.4PL0 Copyright (c) Steve Scherf et al.
# Submitted via: VisiTrax 2.9.5.180 - For more info visit www.synapsa.com
#
DISCID=9b0ef80b
DTITLE=Albert King With Stevie Ray Vaughan - In Session
DYEAR=1999
DGENRE=Blues
TTITLE0=Call It Stormy Monday
TTITLE1=Old Times
TTITLE2=Pride And Joy
TTITLE3=Ask Me No Questions
TTITLE4=Pep Talk
TTITLE5=Blues At Sunrise
TTITLE6=Turn It Over
TTITLE7=Overall Junction
TTITLE8=Match Box Blues
TTITLE9=Who Is Stevie?
TTITLE10=Don't Lie To Me
EXTD=ID3G: 0
EXTT0=
EXTT1=
EXTT2=
EXTT3=
EXTT4=
EXTT5=
EXTT6=
EXTT7=
EXTT8=
EXTT9=
EXTT10=
PLAYORDER=
